<?xml version="1.0" encoding="utf-8"?>
<!-- Generator: Adobe Illustrator 18.1.0, SVG Export Plug-In . SVG Version: 6.00 Build 0)  -->
<!DOCTYPE svg PUBLIC "-//W3C//DTD SVG 1.0//EN" "http://www.w3.org/TR/2001/REC-SVG-20010904/DTD/svg10.dtd">
<svg version="1.0" id="Layer_1" xmlns="http://www.w3.org/2000/svg" xmlns:xlink="http://www.w3.org/1999/xlink" x="0px" y="0px"
	 viewBox="0 0 106 31" enable-background="new 0 0 106 31" xml:space="preserve">
<g>
	<defs>
		<rect id="SVGID_1_" width="106" height="31"/>
	</defs>
	<clipPath id="SVGID_2_">
		<use xlink:href="#SVGID_1_"  overflow="visible"/>
	</clipPath>
	<g clip-path="url(#SVGID_2_)">
		<defs>
			<rect id="SVGID_3_" width="106" height="31"/>
		</defs>
		<clipPath id="SVGID_4_">
			<use xlink:href="#SVGID_3_"  overflow="visible"/>
		</clipPath>
		<path clip-path="url(#SVGID_4_)" fill="none" stroke="#FFFFFF" stroke-miterlimit="10" d="M105.5,27.6c0,1.7-1.4,3-3,3H3.4
			c-1.7,0-3-1.4-3-3V3.4c0-1.7,1.4-3,3-3h99.1c1.7,0,3,1.4,3,3L105.5,27.6z"/>
	</g>
	<g clip-path="url(#SVGID_2_)">
		<defs>
			<path id="SVGID_5_" d="M23.5,15.3c0-2.5,2.1-3.8,2.2-3.8c-1.2-1.7-3-2-3.7-2c-1.6-0.2-3.1,0.9-3.9,0.9c-0.8,0-2-0.9-3.3-0.9
				c-1.7,0-3.3,1-4.1,2.5c-1.8,3.1-0.5,7.6,1.3,10.2c0.9,1.2,1.9,2.6,3.2,2.5c1.3-0.1,1.8-0.8,3.3-0.8c1.5,0,2,0.8,3.3,0.8
				c1.4,0,2.2-1.2,3.1-2.5c1-1.4,1.4-2.8,1.4-2.9C26.2,19.4,23.5,18.4,23.5,15.3z"/>
		</defs>
		<clipPath id="SVGID_6_">
			<use xlink:href="#SVGID_5_"  overflow="visible"/>
		</clipPath>
		<g clip-path="url(#SVGID_6_)">
			<defs>
				<rect id="SVGID_7_" width="106" height="31"/>
			</defs>
			<clipPath id="SVGID_8_">
				<use xlink:href="#SVGID_7_"  overflow="visible"/>
			</clipPath>
			
				<rect x="4.8" y="4.5" clip-path="url(#SVGID_8_)" fill-rule="evenodd" clip-rule="evenodd" fill="#FFFFFF" width="26.4" height="25.3"/>
		</g>
	</g>
	<g clip-path="url(#SVGID_2_)">
		<defs>
			<path id="SVGID_9_" d="M21,7.8c0.7-0.9,1.2-2,1-3.2c-1,0-2.2,0.7-3,1.5c-0.6,0.7-1.2,2-1.1,3.1C19.1,9.3,20.2,8.7,21,7.8z"/>
		</defs>
		<clipPath id="SVGID_10_">
			<use xlink:href="#SVGID_9_"  overflow="visible"/>
		</clipPath>
		<g clip-path="url(#SVGID_10_)">
			<defs>
				<rect id="SVGID_11_" width="106" height="31"/>
			</defs>
			<clipPath id="SVGID_12_">
				<use xlink:href="#SVGID_11_"  overflow="visible"/>
			</clipPath>
			
				<rect x="13" y="-0.4" clip-path="url(#SVGID_12_)" fill-rule="evenodd" clip-rule="evenodd" fill="#FFFFFF" width="14.1" height="14.7"/>
		</g>
	</g>
	<g clip-path="url(#SVGID_2_)">
		<defs>
			<path id="SVGID_13_" d="M39,20.2l-0.9-2.7c-0.1-0.3-0.3-0.9-0.5-2h0c-0.1,0.4-0.3,1.1-0.5,2l-0.9,2.7H39z M42.1,24.6h-1.8l-1-3.1
				h-3.4l-0.9,3.1h-1.7l3.4-10.5h2.1L42.1,24.6z"/>
		</defs>
		<clipPath id="SVGID_14_">
			<use xlink:href="#SVGID_13_"  overflow="visible"/>
		</clipPath>
		<g clip-path="url(#SVGID_14_)">
			<defs>
				<rect id="SVGID_15_" width="106" height="31"/>
			</defs>
			<clipPath id="SVGID_16_">
				<use xlink:href="#SVGID_15_"  overflow="visible"/>
			</clipPath>
			
				<rect x="28.2" y="9.1" clip-path="url(#SVGID_16_)" fill-rule="evenodd" clip-rule="evenodd" fill="#FFFFFF" width="18.9" height="20.5"/>
		</g>
	</g>
	<g clip-path="url(#SVGID_2_)">
		<defs>
			<path id="SVGID_17_" d="M49,20.8c0-0.7-0.2-1.3-0.5-1.8c-0.4-0.5-0.9-0.7-1.5-0.7c-0.4,0-0.8,0.1-1.1,0.4
				c-0.3,0.3-0.6,0.6-0.7,1.1c-0.1,0.2-0.1,0.4-0.1,0.5v1.3c0,0.6,0.2,1,0.5,1.4c0.3,0.4,0.8,0.6,1.3,0.6c0.6,0,1.1-0.2,1.5-0.7
				C48.9,22.2,49,21.6,49,20.8z M50.8,20.7c0,1.3-0.3,2.3-1,3.1c-0.6,0.7-1.4,1-2.3,1c-1,0-1.7-0.4-2.2-1.1h0v4h-1.7v-8.2
				c0-0.8,0-1.6-0.1-2.5h1.5l0.1,1.2h0c0.6-0.9,1.4-1.4,2.6-1.4c0.9,0,1.6,0.4,2.2,1.1C50.5,18.6,50.8,19.5,50.8,20.7z"/>
		</defs>
		<clipPath id="SVGID_18_">
			<use xlink:href="#SVGID_17_"  overflow="visible"/>
		</clipPath>
		<g clip-path="url(#SVGID_18_)">
			<defs>
				<rect id="SVGID_19_" width="106" height="31"/>
			</defs>
			<clipPath id="SVGID_20_">
				<use xlink:href="#SVGID_19_"  overflow="visible"/>
			</clipPath>
			
				<rect x="38.5" y="11.9" clip-path="url(#SVGID_20_)" fill-rule="evenodd" clip-rule="evenodd" fill="#FFFFFF" width="17.3" height="20.8"/>
		</g>
	</g>
	<g clip-path="url(#SVGID_2_)">
		<defs>
			<path id="SVGID_21_" d="M57.8,20.8c0-0.7-0.2-1.3-0.5-1.8c-0.4-0.5-0.9-0.7-1.5-0.7c-0.4,0-0.8,0.1-1.1,0.4
				c-0.3,0.3-0.6,0.6-0.7,1.1c-0.1,0.2-0.1,0.4-0.1,0.5v1.3c0,0.6,0.2,1,0.5,1.4c0.3,0.4,0.8,0.6,1.3,0.6c0.6,0,1.1-0.2,1.5-0.7
				C57.6,22.2,57.8,21.6,57.8,20.8z M59.5,20.7c0,1.3-0.3,2.3-1,3.1c-0.6,0.7-1.4,1-2.3,1c-1,0-1.7-0.4-2.2-1.1h0v4h-1.7v-8.2
				c0-0.8,0-1.6-0.1-2.5h1.5l0.1,1.2h0c0.6-0.9,1.4-1.4,2.6-1.4c0.9,0,1.6,0.4,2.2,1.1C59.2,18.6,59.5,19.5,59.5,20.7z"/>
		</defs>
		<clipPath id="SVGID_22_">
			<use xlink:href="#SVGID_21_"  overflow="visible"/>
		</clipPath>
		<g clip-path="url(#SVGID_22_)">
			<defs>
				<rect id="SVGID_23_" width="106" height="31"/>
			</defs>
			<clipPath id="SVGID_24_">
				<use xlink:href="#SVGID_23_"  overflow="visible"/>
			</clipPath>
			
				<rect x="47.2" y="11.9" clip-path="url(#SVGID_24_)" fill-rule="evenodd" clip-rule="evenodd" fill="#FFFFFF" width="17.3" height="20.8"/>
		</g>
	</g>
	<g clip-path="url(#SVGID_2_)">
		<defs>
			<path id="SVGID_25_" d="M69.2,21.6c0,0.9-0.3,1.6-0.9,2.2c-0.7,0.6-1.6,0.9-2.9,0.9c-1.1,0-2-0.2-2.7-0.7l0.4-1.4
				c0.7,0.4,1.5,0.7,2.4,0.7c0.6,0,1.1-0.1,1.5-0.4c0.4-0.3,0.5-0.7,0.5-1.1c0-0.4-0.1-0.8-0.4-1.1c-0.3-0.3-0.8-0.6-1.4-0.8
				c-1.8-0.7-2.8-1.7-2.8-3c0-0.9,0.3-1.6,1-2.1c0.6-0.6,1.5-0.8,2.6-0.8c1,0,1.8,0.2,2.4,0.5l-0.4,1.4c-0.6-0.3-1.3-0.5-2-0.5
				c-0.6,0-1.1,0.1-1.4,0.4c-0.3,0.3-0.4,0.6-0.4,1c0,0.4,0.2,0.8,0.5,1c0.3,0.2,0.8,0.5,1.5,0.8c0.9,0.4,1.6,0.8,2,1.3
				C69,20.3,69.2,20.9,69.2,21.6z"/>
		</defs>
		<clipPath id="SVGID_26_">
			<use xlink:href="#SVGID_25_"  overflow="visible"/>
		</clipPath>
		<g clip-path="url(#SVGID_26_)">
			<defs>
				<rect id="SVGID_27_" width="106" height="31"/>
			</defs>
			<clipPath id="SVGID_28_">
				<use xlink:href="#SVGID_27_"  overflow="visible"/>
			</clipPath>
			
				<rect x="57.7" y="8.9" clip-path="url(#SVGID_28_)" fill-rule="evenodd" clip-rule="evenodd" fill="#FFFFFF" width="16.5" height="20.8"/>
		</g>
	</g>
	<g clip-path="url(#SVGID_2_)">
		<defs>
			<path id="SVGID_29_" d="M74.8,18.3h-1.9v3.7c0,0.9,0.3,1.4,1,1.4c0.3,0,0.6,0,0.7-0.1l0,1.3c-0.3,0.1-0.8,0.2-1.3,0.2
				c-0.7,0-1.2-0.2-1.6-0.6c-0.4-0.4-0.6-1.1-0.6-2v-3.8h-1.1V17h1.1v-1.4l1.7-0.5V17h1.9V18.3z"/>
		</defs>
		<clipPath id="SVGID_30_">
			<use xlink:href="#SVGID_29_"  overflow="visible"/>
		</clipPath>
		<g clip-path="url(#SVGID_30_)">
			<defs>
				<rect id="SVGID_31_" width="106" height="31"/>
			</defs>
			<clipPath id="SVGID_32_">
				<use xlink:href="#SVGID_31_"  overflow="visible"/>
			</clipPath>
			
				<rect x="65.2" y="10.1" clip-path="url(#SVGID_32_)" fill-rule="evenodd" clip-rule="evenodd" fill="#FFFFFF" width="14.6" height="19.6"/>
		</g>
	</g>
	<g clip-path="url(#SVGID_2_)">
		<defs>
			<path id="SVGID_33_" d="M81.4,20.8c0-0.7-0.1-1.3-0.5-1.8c-0.4-0.6-0.9-0.9-1.5-0.9c-0.7,0-1.2,0.3-1.5,0.9
				c-0.3,0.5-0.5,1.1-0.5,1.8c0,0.7,0.1,1.3,0.5,1.8c0.4,0.6,0.9,0.9,1.5,0.9c0.6,0,1.1-0.3,1.5-0.9C81.2,22.1,81.4,21.5,81.4,20.8z
				 M83.2,20.7c0,1.2-0.3,2.1-1,2.9c-0.7,0.8-1.6,1.2-2.8,1.2c-1.1,0-2-0.4-2.7-1.1c-0.7-0.7-1-1.7-1-2.8c0-1.2,0.3-2.1,1-2.9
				c0.7-0.7,1.6-1.1,2.8-1.1c1.1,0,2,0.4,2.7,1.1C82.8,18.7,83.2,19.6,83.2,20.7z"/>
		</defs>
		<clipPath id="SVGID_34_">
			<use xlink:href="#SVGID_33_"  overflow="visible"/>
		</clipPath>
		<g clip-path="url(#SVGID_34_)">
			<defs>
				<rect id="SVGID_35_" width="106" height="31"/>
			</defs>
			<clipPath id="SVGID_36_">
				<use xlink:href="#SVGID_35_"  overflow="visible"/>
			</clipPath>
			
				<rect x="70.7" y="11.9" clip-path="url(#SVGID_36_)" fill-rule="evenodd" clip-rule="evenodd" fill="#FFFFFF" width="17.4" height="17.9"/>
		</g>
	</g>
	<g clip-path="url(#SVGID_2_)">
		<defs>
			<path id="SVGID_37_" d="M88.6,18.5c-0.2,0-0.3,0-0.5,0c-0.6,0-1,0.2-1.4,0.7c-0.3,0.4-0.4,0.9-0.4,1.5v4h-1.7l0-5.2
				c0-0.9,0-1.7-0.1-2.4H86l0.1,1.4h0c0.2-0.5,0.5-0.9,0.8-1.2c0.4-0.3,0.8-0.4,1.2-0.4c0.2,0,0.3,0,0.4,0V18.5z"/>
		</defs>
		<clipPath id="SVGID_38_">
			<use xlink:href="#SVGID_37_"  overflow="visible"/>
		</clipPath>
		<g clip-path="url(#SVGID_38_)">
			<defs>
				<rect id="SVGID_39_" width="106" height="31"/>
			</defs>
			<clipPath id="SVGID_40_">
				<use xlink:href="#SVGID_39_"  overflow="visible"/>
			</clipPath>
			
				<rect x="79.6" y="11.9" clip-path="url(#SVGID_40_)" fill-rule="evenodd" clip-rule="evenodd" fill="#FFFFFF" width="14.1" height="17.7"/>
		</g>
	</g>
	<g clip-path="url(#SVGID_2_)">
		<defs>
			<path id="SVGID_41_" d="M94.5,20c0-0.5-0.1-0.9-0.3-1.3c-0.3-0.5-0.7-0.7-1.3-0.7c-0.6,0-1,0.2-1.3,0.7c-0.3,0.4-0.4,0.8-0.5,1.3
				L94.5,20L94.5,20z M96.1,20.4c0,0.3,0,0.6-0.1,0.8h-5c0,0.7,0.3,1.3,0.7,1.7c0.4,0.4,1,0.5,1.7,0.5c0.7,0,1.4-0.1,2-0.4l0.3,1.2
				c-0.7,0.3-1.6,0.5-2.5,0.5c-1.2,0-2.1-0.3-2.8-1c-0.7-0.7-1-1.6-1-2.8c0-1.1,0.3-2.1,0.9-2.9c0.7-0.8,1.5-1.2,2.6-1.2
				c1.1,0,1.9,0.4,2.5,1.2C95.9,18.7,96.1,19.5,96.1,20.4z"/>
		</defs>
		<clipPath id="SVGID_42_">
			<use xlink:href="#SVGID_41_"  overflow="visible"/>
		</clipPath>
		<g clip-path="url(#SVGID_42_)">
			<defs>
				<rect id="SVGID_43_" width="106" height="31"/>
			</defs>
			<clipPath id="SVGID_44_">
				<use xlink:href="#SVGID_43_"  overflow="visible"/>
			</clipPath>
			
				<rect x="84.4" y="11.8" clip-path="url(#SVGID_44_)" fill-rule="evenodd" clip-rule="evenodd" fill="#FFFFFF" width="16.7" height="17.9"/>
		</g>
	</g>
	<g clip-path="url(#SVGID_2_)">
		<defs>
			<path id="SVGID_45_" d="M37.6,7.6c0-0.6-0.2-1.1-0.5-1.4c-0.3-0.3-0.8-0.5-1.4-0.5c-0.3,0-0.5,0-0.7,0.1v3.9c0.1,0,0.3,0,0.6,0
				c0.6,0,1.1-0.2,1.5-0.5C37.4,8.8,37.6,8.3,37.6,7.6z M38.4,7.6c0,0.9-0.3,1.6-0.8,2.1c-0.5,0.4-1.2,0.7-2.2,0.7
				c-0.5,0-0.9,0-1.2-0.1V5.2c0.4-0.1,0.9-0.1,1.4-0.1c0.9,0,1.6,0.2,2,0.6C38.2,6.1,38.4,6.8,38.4,7.6z"/>
		</defs>
		<clipPath id="SVGID_46_">
			<use xlink:href="#SVGID_45_"  overflow="visible"/>
		</clipPath>
		<g clip-path="url(#SVGID_46_)">
			<defs>
				<rect id="SVGID_47_" width="106" height="31"/>
			</defs>
			<clipPath id="SVGID_48_">
				<use xlink:href="#SVGID_47_"  overflow="visible"/>
			</clipPath>
			
				<rect x="29.2" y="0.1" clip-path="url(#SVGID_48_)" fill-rule="evenodd" clip-rule="evenodd" fill="#FFFFFF" width="14.2" height="15.2"/>
		</g>
	</g>
	<g clip-path="url(#SVGID_2_)">
		<defs>
			<path id="SVGID_49_" d="M42.2,8.5c0-0.3-0.1-0.6-0.2-0.9c-0.2-0.3-0.4-0.4-0.7-0.4c-0.3,0-0.6,0.1-0.8,0.4
				c-0.1,0.2-0.2,0.5-0.2,0.9c0,0.3,0.1,0.6,0.2,0.9c0.2,0.3,0.4,0.4,0.8,0.4c0.3,0,0.6-0.2,0.7-0.5C42.1,9.1,42.2,8.8,42.2,8.5z
				 M43.1,8.4c0,0.6-0.2,1-0.5,1.4c-0.3,0.4-0.8,0.6-1.4,0.6c-0.5,0-1-0.2-1.3-0.5c-0.3-0.4-0.5-0.8-0.5-1.4c0-0.6,0.2-1,0.5-1.4
				c0.3-0.4,0.8-0.6,1.4-0.6c0.5,0,1,0.2,1.3,0.5C42.9,7.4,43.1,7.9,43.1,8.4z"/>
		</defs>
		<clipPath id="SVGID_50_">
			<use xlink:href="#SVGID_49_"  overflow="visible"/>
		</clipPath>
		<g clip-path="url(#SVGID_50_)">
			<defs>
				<rect id="SVGID_51_" width="106" height="31"/>
			</defs>
			<clipPath id="SVGID_52_">
				<use xlink:href="#SVGID_51_"  overflow="visible"/>
			</clipPath>
			
				<rect x="34.4" y="1.5" clip-path="url(#SVGID_52_)" fill-rule="evenodd" clip-rule="evenodd" fill="#FFFFFF" width="13.6" height="13.9"/>
		</g>
	</g>
	<g clip-path="url(#SVGID_2_)">
		<defs>
			<path id="SVGID_53_" d="M49.3,6.6l-1.2,3.7h-0.8l-0.5-1.6c-0.1-0.4-0.2-0.8-0.3-1.2h0c-0.1,0.4-0.2,0.8-0.3,1.2l-0.5,1.6H45
				l-1.1-3.7h0.9l0.4,1.8c0.1,0.4,0.2,0.8,0.3,1.2h0c0.1-0.3,0.2-0.7,0.3-1.2l0.5-1.8h0.7l0.5,1.7c0.1,0.4,0.2,0.8,0.3,1.2h0
				c0.1-0.4,0.1-0.8,0.3-1.2l0.5-1.7L49.3,6.6L49.3,6.6z"/>
		</defs>
		<clipPath id="SVGID_54_">
			<use xlink:href="#SVGID_53_"  overflow="visible"/>
		</clipPath>
		<g clip-path="url(#SVGID_54_)">
			<defs>
				<rect id="SVGID_55_" width="106" height="31"/>
			</defs>
			<clipPath id="SVGID_56_">
				<use xlink:href="#SVGID_55_"  overflow="visible"/>
			</clipPath>
			
				<rect x="38.9" y="1.6" clip-path="url(#SVGID_56_)" fill-rule="evenodd" clip-rule="evenodd" fill="#FFFFFF" width="15.4" height="13.7"/>
		</g>
	</g>
	<g clip-path="url(#SVGID_2_)">
		<defs>
			<path id="SVGID_57_" d="M53.6,10.3h-0.8V8.2c0-0.7-0.2-1-0.8-1c-0.2,0-0.4,0.1-0.6,0.3c-0.2,0.2-0.2,0.4-0.2,0.6v2.2h-0.8V7.7
				c0-0.3,0-0.7,0-1.1H51l0,0.6h0c0.1-0.2,0.2-0.3,0.4-0.4c0.2-0.1,0.5-0.2,0.8-0.2c0.3,0,0.6,0.1,0.9,0.3c0.3,0.3,0.4,0.7,0.4,1.2
				V10.3z"/>
		</defs>
		<clipPath id="SVGID_58_">
			<use xlink:href="#SVGID_57_"  overflow="visible"/>
		</clipPath>
		<g clip-path="url(#SVGID_58_)">
			<defs>
				<rect id="SVGID_59_" width="106" height="31"/>
			</defs>
			<clipPath id="SVGID_60_">
				<use xlink:href="#SVGID_59_"  overflow="visible"/>
			</clipPath>
			
				<rect x="45.3" y="1.5" clip-path="url(#SVGID_60_)" fill-rule="evenodd" clip-rule="evenodd" fill="#FFFFFF" width="13.3" height="13.8"/>
		</g>
	</g>
	<g clip-path="url(#SVGID_2_)">
		<defs>
			<rect id="SVGID_61_" x="55" y="4.9" width="0.8" height="5.4"/>
		</defs>
		<clipPath id="SVGID_62_">
			<use xlink:href="#SVGID_61_"  overflow="visible"/>
		</clipPath>
		<g clip-path="url(#SVGID_62_)">
			<defs>
				<rect id="SVGID_63_" width="106" height="31"/>
			</defs>
			<clipPath id="SVGID_64_">
				<use xlink:href="#SVGID_63_"  overflow="visible"/>
			</clipPath>
			
				<rect x="50" y="-0.1" clip-path="url(#SVGID_64_)" fill-rule="evenodd" clip-rule="evenodd" fill="#FFFFFF" width="10.8" height="15.4"/>
		</g>
	</g>
	<g clip-path="url(#SVGID_2_)">
		<defs>
			<path id="SVGID_65_" d="M59.8,8.5c0-0.3-0.1-0.6-0.2-0.9c-0.2-0.3-0.4-0.4-0.7-0.4c-0.3,0-0.6,0.1-0.8,0.4
				c-0.1,0.2-0.2,0.5-0.2,0.9c0,0.3,0.1,0.6,0.2,0.9c0.2,0.3,0.4,0.4,0.8,0.4c0.3,0,0.6-0.2,0.7-0.5C59.8,9.1,59.8,8.8,59.8,8.5z
				 M60.7,8.4c0,0.6-0.2,1-0.5,1.4c-0.3,0.4-0.8,0.6-1.4,0.6c-0.5,0-1-0.2-1.3-0.5c-0.3-0.4-0.5-0.8-0.5-1.4c0-0.6,0.2-1,0.5-1.4
				c0.3-0.4,0.8-0.6,1.4-0.6c0.5,0,1,0.2,1.3,0.5C60.5,7.4,60.7,7.9,60.7,8.4z"/>
		</defs>
		<clipPath id="SVGID_66_">
			<use xlink:href="#SVGID_65_"  overflow="visible"/>
		</clipPath>
		<g clip-path="url(#SVGID_66_)">
			<defs>
				<rect id="SVGID_67_" width="106" height="31"/>
			</defs>
			<clipPath id="SVGID_68_">
				<use xlink:href="#SVGID_67_"  overflow="visible"/>
			</clipPath>
			
				<rect x="52.1" y="1.5" clip-path="url(#SVGID_68_)" fill-rule="evenodd" clip-rule="evenodd" fill="#FFFFFF" width="13.6" height="13.9"/>
		</g>
	</g>
	<g clip-path="url(#SVGID_2_)">
		<defs>
			<path id="SVGID_69_" d="M63.8,9V8.5c-0.9,0-1.4,0.2-1.4,0.8c0,0.2,0.1,0.3,0.2,0.4c0.1,0.1,0.2,0.1,0.4,0.1
				c0.2,0,0.4-0.1,0.5-0.2c0.2-0.1,0.3-0.3,0.3-0.4C63.8,9.1,63.8,9.1,63.8,9z M64.7,10.3H64l-0.1-0.4h0c-0.3,0.3-0.6,0.5-1.1,0.5
				c-0.4,0-0.6-0.1-0.8-0.3c-0.2-0.2-0.3-0.5-0.3-0.8c0-0.5,0.2-0.8,0.6-1c0.4-0.2,0.9-0.4,1.6-0.4V7.8c0-0.5-0.3-0.7-0.8-0.7
				c-0.4,0-0.7,0.1-1,0.3l-0.2-0.5c0.3-0.2,0.8-0.3,1.3-0.3c1,0,1.5,0.5,1.5,1.5v1.4C64.7,9.8,64.7,10.1,64.7,10.3z"/>
		</defs>
		<clipPath id="SVGID_70_">
			<use xlink:href="#SVGID_69_"  overflow="visible"/>
		</clipPath>
		<g clip-path="url(#SVGID_70_)">
			<defs>
				<rect id="SVGID_71_" width="106" height="31"/>
			</defs>
			<clipPath id="SVGID_72_">
				<use xlink:href="#SVGID_71_"  overflow="visible"/>
			</clipPath>
			
				<rect x="56.7" y="1.5" clip-path="url(#SVGID_72_)" fill-rule="evenodd" clip-rule="evenodd" fill="#FFFFFF" width="13.1" height="13.9"/>
		</g>
	</g>
	<g clip-path="url(#SVGID_2_)">
		<defs>
			<path id="SVGID_73_" d="M68.6,8.7V8.1c0-0.1,0-0.2,0-0.3c0-0.2-0.1-0.4-0.3-0.5c-0.2-0.1-0.3-0.2-0.6-0.2c-0.3,0-0.6,0.1-0.7,0.4
				c-0.2,0.2-0.3,0.6-0.3,0.9c0,0.4,0.1,0.7,0.3,0.9c0.2,0.2,0.4,0.4,0.7,0.4c0.3,0,0.5-0.1,0.7-0.3C68.5,9.2,68.6,9,68.6,8.7z
				 M69.4,10.3h-0.7l0-0.6h0c-0.2,0.5-0.6,0.7-1.2,0.7c-0.4,0-0.8-0.2-1.1-0.5c-0.3-0.4-0.4-0.8-0.4-1.4c0-0.6,0.2-1.1,0.5-1.5
				c0.3-0.3,0.7-0.5,1.1-0.5c0.5,0,0.8,0.2,1,0.5h0V4.9h0.8v4.4C69.4,9.7,69.4,10,69.4,10.3z"/>
		</defs>
		<clipPath id="SVGID_74_">
			<use xlink:href="#SVGID_73_"  overflow="visible"/>
		</clipPath>
		<g clip-path="url(#SVGID_74_)">
			<defs>
				<rect id="SVGID_75_" width="106" height="31"/>
			</defs>
			<clipPath id="SVGID_76_">
				<use xlink:href="#SVGID_75_"  overflow="visible"/>
			</clipPath>
			
				<rect x="60.9" y="-0.1" clip-path="url(#SVGID_76_)" fill-rule="evenodd" clip-rule="evenodd" fill="#FFFFFF" width="13.6" height="15.5"/>
		</g>
	</g>
	<g clip-path="url(#SVGID_2_)">
		<defs>
			<path id="SVGID_77_" d="M75.6,8.5c0-0.3-0.1-0.6-0.2-0.9c-0.2-0.3-0.4-0.4-0.7-0.4c-0.3,0-0.6,0.1-0.8,0.4
				c-0.1,0.2-0.2,0.5-0.2,0.9c0,0.3,0.1,0.6,0.2,0.9c0.2,0.3,0.4,0.4,0.8,0.4c0.3,0,0.6-0.2,0.7-0.5C75.6,9.1,75.6,8.8,75.6,8.5z
				 M76.5,8.4c0,0.6-0.2,1-0.5,1.4c-0.3,0.4-0.8,0.6-1.4,0.6c-0.5,0-1-0.2-1.3-0.5C73,9.5,72.8,9,72.8,8.5c0-0.6,0.2-1,0.5-1.4
				c0.3-0.4,0.8-0.6,1.4-0.6c0.5,0,1,0.2,1.3,0.5C76.3,7.4,76.5,7.9,76.5,8.4z"/>
		</defs>
		<clipPath id="SVGID_78_">
			<use xlink:href="#SVGID_77_"  overflow="visible"/>
		</clipPath>
		<g clip-path="url(#SVGID_78_)">
			<defs>
				<rect id="SVGID_79_" width="106" height="31"/>
			</defs>
			<clipPath id="SVGID_80_">
				<use xlink:href="#SVGID_79_"  overflow="visible"/>
			</clipPath>
			
				<rect x="67.8" y="1.5" clip-path="url(#SVGID_80_)" fill-rule="evenodd" clip-rule="evenodd" fill="#FFFFFF" width="13.6" height="13.9"/>
		</g>
	</g>
	<g clip-path="url(#SVGID_2_)">
		<defs>
			<path id="SVGID_81_" d="M80.9,10.3h-0.8V8.2c0-0.7-0.2-1-0.8-1c-0.2,0-0.4,0.1-0.6,0.3c-0.2,0.2-0.2,0.4-0.2,0.6v2.2h-0.8V7.7
				c0-0.3,0-0.7,0-1.1h0.7l0,0.6h0c0.1-0.2,0.2-0.3,0.4-0.4c0.2-0.1,0.5-0.2,0.8-0.2c0.3,0,0.6,0.1,0.9,0.3c0.3,0.3,0.4,0.7,0.4,1.2
				V10.3z"/>
		</defs>
		<clipPath id="SVGID_82_">
			<use xlink:href="#SVGID_81_"  overflow="visible"/>
		</clipPath>
		<g clip-path="url(#SVGID_82_)">
			<defs>
				<rect id="SVGID_83_" width="106" height="31"/>
			</defs>
			<clipPath id="SVGID_84_">
				<use xlink:href="#SVGID_83_"  overflow="visible"/>
			</clipPath>
			
				<rect x="72.7" y="1.5" clip-path="url(#SVGID_84_)" fill-rule="evenodd" clip-rule="evenodd" fill="#FFFFFF" width="13.3" height="13.8"/>
		</g>
	</g>
	<g clip-path="url(#SVGID_2_)">
		<defs>
			<path id="SVGID_85_" d="M86.5,7.2h-0.9V9c0,0.5,0.2,0.7,0.5,0.7c0.1,0,0.3,0,0.4,0l0,0.6c-0.2,0.1-0.4,0.1-0.6,0.1
				c-0.3,0-0.6-0.1-0.8-0.3c-0.2-0.2-0.3-0.5-0.3-1V7.2h-0.5V6.6h0.5V5.9l0.8-0.2v0.9h0.9L86.5,7.2L86.5,7.2z"/>
		</defs>
		<clipPath id="SVGID_86_">
			<use xlink:href="#SVGID_85_"  overflow="visible"/>
		</clipPath>
		<g clip-path="url(#SVGID_86_)">
			<defs>
				<rect id="SVGID_87_" width="106" height="31"/>
			</defs>
			<clipPath id="SVGID_88_">
				<use xlink:href="#SVGID_87_"  overflow="visible"/>
			</clipPath>
			
				<rect x="79.2" y="0.7" clip-path="url(#SVGID_88_)" fill-rule="evenodd" clip-rule="evenodd" fill="#FFFFFF" width="12.3" height="14.7"/>
		</g>
	</g>
	<g clip-path="url(#SVGID_2_)">
		<defs>
			<path id="SVGID_89_" d="M90.9,10.3h-0.8V8.2c0-0.7-0.2-1-0.7-1c-0.4,0-0.6,0.2-0.8,0.6c0,0.1,0,0.2,0,0.3v2.2h-0.8V4.9h0.8v2.2h0
				c0.3-0.4,0.6-0.6,1.1-0.6c0.3,0,0.6,0.1,0.9,0.3c0.3,0.3,0.4,0.7,0.4,1.2V10.3z"/>
		</defs>
		<clipPath id="SVGID_90_">
			<use xlink:href="#SVGID_89_"  overflow="visible"/>
		</clipPath>
		<g clip-path="url(#SVGID_90_)">
			<defs>
				<rect id="SVGID_91_" width="106" height="31"/>
			</defs>
			<clipPath id="SVGID_92_">
				<use xlink:href="#SVGID_91_"  overflow="visible"/>
			</clipPath>
			
				<rect x="82.7" y="-0.1" clip-path="url(#SVGID_92_)" fill-rule="evenodd" clip-rule="evenodd" fill="#FFFFFF" width="13.2" height="15.4"/>
		</g>
	</g>
	<g clip-path="url(#SVGID_2_)">
		<defs>
			<path id="SVGID_93_" d="M94.6,8.1c0-0.2,0-0.5-0.2-0.6c-0.1-0.2-0.4-0.3-0.7-0.3c-0.3,0-0.5,0.1-0.7,0.3
				c-0.1,0.2-0.2,0.4-0.2,0.6H94.6z M95.4,8.3c0,0.1,0,0.3,0,0.4h-2.5c0,0.4,0.1,0.6,0.4,0.8c0.2,0.2,0.5,0.3,0.8,0.3
				c0.4,0,0.7-0.1,1-0.2l0.1,0.6c-0.4,0.2-0.8,0.2-1.2,0.2c-0.6,0-1-0.2-1.4-0.5c-0.3-0.3-0.5-0.8-0.5-1.4c0-0.6,0.2-1,0.5-1.4
				c0.3-0.4,0.8-0.6,1.3-0.6c0.5,0,0.9,0.2,1.2,0.6C95.3,7.4,95.4,7.8,95.4,8.3z"/>
		</defs>
		<clipPath id="SVGID_94_">
			<use xlink:href="#SVGID_93_"  overflow="visible"/>
		</clipPath>
		<g clip-path="url(#SVGID_94_)">
			<defs>
				<rect id="SVGID_95_" width="106" height="31"/>
			</defs>
			<clipPath id="SVGID_96_">
				<use xlink:href="#SVGID_95_"  overflow="visible"/>
			</clipPath>
			
				<rect x="87.1" y="1.5" clip-path="url(#SVGID_96_)" fill-rule="evenodd" clip-rule="evenodd" fill="#FFFFFF" width="13.3" height="13.9"/>
		</g>
	</g>
</g>
</svg>
